<?xml version="1.0" encoding="UTF-8"?>
<!DOCTYPE svg PUBLIC "-//W3C//DTD SVG 1.1//EN" "http://www.w3.org/Graphics/SVG/1.1/DTD/svg11.dtd">
<svg xmlns="http://www.w3.org/2000/svg" version="1.1" width="1080px" height="1080px" style="shape-rendering:geometricPrecision; text-rendering:geometricPrecision; image-rendering:optimizeQuality; fill-rule:evenodd; clip-rule:evenodd" xmlns:xlink="http://www.w3.org/1999/xlink">
<g><path style="opacity:1" fill="#000000" d="M -0.5,-0.5 C 359.5,-0.5 719.5,-0.5 1079.5,-0.5C 1079.5,359.5 1079.5,719.5 1079.5,1079.5C 719.5,1079.5 359.5,1079.5 -0.5,1079.5C -0.5,719.5 -0.5,359.5 -0.5,-0.5 Z"/></g>
<g><path style="opacity:1" fill="#fefefe" d="M 594.5,117.5 C 598.355,116.845 601.188,118.179 603,121.5C 604.749,132.02 604.582,142.52 602.5,153C 603.034,160.933 605.367,168.267 609.5,175C 609.167,176 608.833,177 608.5,178C 610.279,180.104 611.612,182.438 612.5,185C 612.415,186.107 612.081,187.107 611.5,188C 607.557,187.563 605.224,189.229 604.5,193C 605.576,194.726 605.743,196.559 605,198.5C 603.092,201.215 601.759,204.215 601,207.5C 595.196,217.619 589.029,227.452 582.5,237C 582.789,242.12 583.123,247.286 583.5,252.5C 581.55,258.75 581.55,265.083 583.5,271.5C 586.625,274.39 589.292,277.723 591.5,281.5C 588.529,283.797 586.862,286.797 586.5,290.5C 581.851,291.295 577.184,291.461 572.5,291C 571.667,290.167 570.833,289.333 570,288.5C 568.555,280.999 567.055,273.499 565.5,266C 565.909,263.679 566.743,261.513 568,259.5C 571.067,257.899 573.567,255.732 575.5,253C 575.387,251.72 574.72,250.887 573.5,250.5C 567.426,255.193 562.592,254.193 559,247.5C 556.298,235.66 553.464,223.827 550.5,212C 551.652,208.694 553.319,205.694 555.5,203C 559.841,202.907 564.174,202.907 568.5,203C 571.575,200.785 573.575,197.951 574.5,194.5C 573.452,188.78 572.618,183.113 572,177.5C 574.479,174.931 577.146,172.598 580,170.5C 583.949,161.643 583.283,153.309 578,145.5C 577.833,144.333 577.667,143.167 577.5,142C 578.761,135.893 579.594,129.726 580,123.5C 584.669,120.966 589.502,118.966 594.5,117.5 Z"/></g>
<g><path style="opacity:1" fill="#fefefe" d="M 510.5,153.5 C 513.758,154.068 517.091,154.234 520.5,154C 523.978,157.299 526.978,160.966 529.5,165C 525.566,172.751 524.899,174.585 527.5,170.5C 530.59,169.83 532.257,170.997 532.5,174C 532.612,175.662 531.946,176.829 530.5,177.5C 529.744,181.662 529.077,185.829 528.5,190C 530.274,194.022 530.774,198.188 530,202.5C 527.695,204.93 524.862,205.93 521.5,205.5C 521.663,207.857 521.497,210.19 521,212.5C 519.002,216.329 517.502,220.329 516.5,224.5C 516.204,237.535 516.704,250.535 518,263.5C 515.33,264.224 513.83,265.891 513.5,268.5C 516.068,267.55 518.568,267.55 521,268.5C 521.595,269.899 521.428,271.232 520.5,272.5C 518.579,273.641 516.579,273.808 514.5,273C 512.257,270.533 509.59,268.7 506.5,267.5C 505.96,266.252 505.293,265.085 504.5,264C 505.76,262.186 505.76,260.353 504.5,258.5C 504.001,261.217 502.835,263.551 501,265.5C 501.407,270.197 500.574,274.864 498.5,279.5C 499.269,282.104 500.936,283.938 503.5,285C 502.446,286.388 502.28,287.888 503,289.5C 506.537,290.643 507.704,292.809 506.5,296C 510.033,296.986 513.533,298.152 517,299.5C 519.139,304.44 518.972,309.274 516.5,314C 518.534,316.54 520.868,318.873 523.5,321C 522.874,321.75 522.374,322.584 522,323.5C 515.817,325.626 510.484,324.293 506,319.5C 506.913,316.46 507.747,313.293 508.5,310C 508.333,308.833 508.167,307.667 508,306.5C 503.358,304.904 502.525,302.237 505.5,298.5C 502.637,297.126 499.637,296.126 496.5,295.5C 493.935,284.858 492.268,285.191 491.5,296.5C 491.572,298.56 491.905,300.56 492.5,302.5C 492.291,303.086 491.957,303.586 491.5,304C 488.097,304.1 484.93,304.934 482,306.5C 480.01,312.306 478.177,318.139 476.5,324C 476.191,326.664 477.025,328.83 479,330.5C 484.299,325.144 488.965,325.81 493,332.5C 493.667,333.833 493.667,335.167 493,336.5C 491.055,337.863 488.888,338.697 486.5,339C 482.682,346.776 477.515,347.609 471,341.5C 470.374,335.258 468.874,329.258 466.5,323.5C 466.818,320.044 467.652,316.711 469,313.5C 471.333,311.167 473.667,308.833 476,306.5C 480.219,300.577 479.885,295.244 475,290.5C 474.944,279.608 473.444,268.942 470.5,258.5C 471.595,251.105 473.762,244.105 477,237.5C 478.99,234.512 481.323,231.845 484,229.5C 484.5,226 485,222.5 485.5,219C 483.797,213.247 482.963,207.414 483,201.5C 484.113,200.289 485.28,200.289 486.5,201.5C 488.606,206.479 491.772,207.479 496,204.5C 497.426,195.202 498.093,185.869 498,176.5C 496.104,175.32 494.604,173.82 493.5,172C 493.905,171.055 494.572,170.388 495.5,170C 497.764,169.764 499.931,169.264 502,168.5C 502.434,164.452 502.434,160.452 502,156.5C 504.714,155.004 507.547,154.004 510.5,153.5 Z"/></g>
<g><path style="opacity:1" fill="#fefefe" d="M 896.5,159.5 C 900.692,159.177 902.692,161.177 902.5,165.5C 899.822,170.875 897.656,176.542 896,182.5C 890.676,187.323 885.009,191.657 879,195.5C 875.015,194.064 871.515,194.898 868.5,198C 863.18,204.283 857.846,210.616 852.5,217C 847.812,219.506 842.812,221.172 837.5,222C 836.122,223.713 834.455,225.047 832.5,226C 828.516,225.814 824.516,225.814 820.5,226C 818.278,229.888 815.112,232.721 811,234.5C 807.805,233.149 805.972,230.815 805.5,227.5C 804.178,227.33 803.011,227.663 802,228.5C 800.711,230.055 800.044,231.721 800,233.5C 802.251,235.377 804.751,236.877 807.5,238C 810.464,241.966 813.797,245.633 817.5,249C 820.798,249.542 823.965,249.042 827,247.5C 828.559,248.029 830.059,248.696 831.5,249.5C 832.747,251.006 832.747,252.506 831.5,254C 824.308,255.984 816.975,256.65 809.5,256C 806.167,254 803.5,251.333 801.5,248C 798.15,247.07 795.317,247.903 793,250.5C 791.333,254.833 789.667,259.167 788,263.5C 786.933,264.191 785.766,264.691 784.5,265C 777.265,265.274 770.099,266.108 763,267.5C 755.859,266.423 748.693,266.256 741.5,267C 737.274,270.28 732.607,272.78 727.5,274.5C 724.761,273.472 723.594,271.472 724,268.5C 727.374,265.986 731.207,264.652 735.5,264.5C 735.64,262.876 734.973,261.71 733.5,261C 728.595,261.131 724.095,259.964 720,257.5C 716.894,260.442 713.394,262.775 709.5,264.5C 704.993,264.279 702.993,261.945 703.5,257.5C 699.009,259.043 694.676,258.71 690.5,256.5C 690.167,257 689.833,257.5 689.5,258C 690.278,260.39 691.445,262.557 693,264.5C 693.333,266.833 693.667,269.167 694,271.5C 696.511,273.563 699.344,275.063 702.5,276C 705.807,282.555 703.807,286.055 696.5,286.5C 696.665,283.15 696.498,279.817 696,276.5C 693.218,274.989 691.385,275.822 690.5,279C 695.679,285.621 694.346,290.121 686.5,292.5C 683.008,291.465 679.675,290.132 676.5,288.5C 680.813,285.776 682.98,281.776 683,276.5C 685.035,274.76 686.869,272.926 688.5,271C 686.733,269.174 684.566,268.007 682,267.5C 678.171,255.018 682.671,248.185 695.5,247C 697.441,248.903 699.774,249.736 702.5,249.5C 702.337,247.143 702.503,244.81 703,242.5C 715.966,229.066 731.799,223.566 750.5,226C 757.167,223.667 763.833,221.333 770.5,219C 775.506,216.499 780.173,213.499 784.5,210C 796.125,204.241 808.459,201.241 821.5,201C 827.057,198.776 831.39,195.109 834.5,190C 842.15,191.34 847.817,188.673 851.5,182C 854.044,180.908 856.711,180.241 859.5,180C 870.375,174.063 881.375,168.396 892.5,163C 894.093,162.051 895.426,160.885 896.5,159.5 Z"/></g>
<g><path style="opacity:1" fill="#fefefe" d="M 645.5,165.5 C 653.536,165.402 661.536,165.902 669.5,167C 678.691,168.223 681.524,173.057 678,181.5C 675.81,185.076 673.81,188.743 672,192.5C 671.374,194.713 671.541,196.88 672.5,199C 671.026,202.114 669.693,205.281 668.5,208.5C 670.571,214.963 668.571,219.63 662.5,222.5C 661.212,226.034 659.546,229.367 657.5,232.5C 661.016,236.777 663.35,236.11 664.5,230.5C 665.478,230.977 666.311,231.643 667,232.5C 666.332,236.376 665.165,240.209 663.5,244C 665.411,246.482 667.077,249.149 668.5,252C 666.265,253.994 664.099,253.828 662,251.5C 660.667,252.167 659.333,252.833 658,253.5C 655.595,251.349 652.761,250.016 649.5,249.5C 648.253,246.296 649.086,243.63 652,241.5C 651.851,234.728 653.017,228.228 655.5,222C 653.959,216.708 651.459,216.208 648,220.5C 646.296,224.741 644.462,228.907 642.5,233C 644.973,236.346 645.14,239.846 643,243.5C 640.499,248.112 637.166,252.112 633,255.5C 632.394,258.076 632.894,260.41 634.5,262.5C 632.655,265.19 630.989,268.023 629.5,271C 631.519,278.031 632.852,285.198 633.5,292.5C 638.21,294.218 638.544,296.218 634.5,298.5C 632.971,298.471 631.804,297.804 631,296.5C 629.591,293.418 627.758,290.585 625.5,288C 626.517,286.951 626.684,285.784 626,284.5C 624.266,283.751 622.433,283.251 620.5,283C 619.131,280.761 619.631,278.927 622,277.5C 620.882,266.607 623.215,256.607 629,247.5C 628.814,243.516 628.814,239.516 629,235.5C 634.502,224.878 637.169,213.544 637,201.5C 639.625,197.212 641.791,192.712 643.5,188C 641.951,184.403 640.284,180.903 638.5,177.5C 639.747,172.634 642.08,168.634 645.5,165.5 Z"/></g>
<g><path style="opacity:1" fill="#000000" d="M 583.5,223.5 C 584.376,223.369 585.043,223.702 585.5,224.5C 584.876,226.754 583.543,228.421 581.5,229.5C 580.5,229.167 579.833,228.5 579.5,227.5C 580.549,225.784 581.882,224.451 583.5,223.5 Z"/></g>
<g><path style="opacity:1" fill="#000000" d="M 503.5,229.5 C 508.667,228.492 510.334,230.325 508.5,235C 501.692,240.792 498.692,239.292 499.5,230.5C 501.099,230.768 502.432,230.434 503.5,229.5 Z"/></g>
<g><path style="opacity:1" fill="#000000" d="M 732.5,237.5 C 733.675,237.281 734.675,237.614 735.5,238.5C 736.848,242.592 739.681,244.592 744,244.5C 748.662,244.295 752.829,242.795 756.5,240C 759.5,239.333 762.5,239.333 765.5,240C 768.203,241.82 769.036,244.32 768,247.5C 763.047,248.565 758.88,251.065 755.5,255C 751.458,256.687 747.458,256.687 743.5,255C 741.266,251.099 738.1,248.265 734,246.5C 731.46,247.802 730.293,246.802 730.5,243.5C 730.363,241.159 731.03,239.159 732.5,237.5 Z"/></g>
<g><path style="opacity:1" fill="#000000" d="M 574.5,239.5 C 575.5,239.5 576.5,239.5 577.5,239.5C 577.876,242.619 576.709,244.953 574,246.5C 572.941,246.37 572.108,245.87 571.5,245C 572.223,242.982 573.223,241.148 574.5,239.5 Z"/></g>
<g><path style="opacity:1" fill="#000000" d="M 486.5,248.5 C 488.564,248.762 489.897,249.929 490.5,252C 489.792,254.589 488.459,256.755 486.5,258.5C 483.952,255.207 483.952,251.873 486.5,248.5 Z"/></g>
<g><path style="opacity:1" fill="#fefefe" d="M 798.5,252.5 C 803.151,253.174 804.651,255.841 803,260.5C 799.058,264.951 796.224,264.451 794.5,259C 795.207,256.413 796.541,254.246 798.5,252.5 Z"/></g>
<g><path style="opacity:1" fill="#000000" d="M 777.5,254.5 C 778.833,254.5 780.167,254.5 781.5,254.5C 781.5,255.833 781.5,257.167 781.5,258.5C 778.5,258.833 777.167,257.5 777.5,254.5 Z"/></g>
<g><path style="opacity:1" fill="#fefffe" d="M 639.5,259.5 C 640.776,260.386 640.776,261.386 639.5,262.5C 638.438,261.575 638.438,260.575 639.5,259.5 Z"/></g>
<g><path style="opacity:1" fill="#fefffe" d="M 670.5,260.5 C 673.5,260.167 674.833,261.5 674.5,264.5C 673.167,264.5 671.833,264.5 670.5,264.5C 670.5,263.167 670.5,261.833 670.5,260.5 Z"/></g>
<g><path style="opacity:1" fill="#000000" d="M 480.5,266.5 C 481.833,266.5 483.167,266.5 484.5,266.5C 484.778,268.346 484.111,269.68 482.5,270.5C 480.889,269.68 480.222,268.346 480.5,266.5 Z"/></g>
<g><path style="opacity:1" fill="#fefffe" d="M 654.5,269.5 C 656.337,269.639 656.67,270.306 655.5,271.5C 654.702,271.043 654.369,270.376 654.5,269.5 Z"/></g>
<g><path style="opacity:1" fill="#fefefe" d="M 664.5,269.5 C 667.504,269.335 669.504,270.668 670.5,273.5C 668.884,277.096 666.217,279.43 662.5,280.5C 661.167,279.833 660.167,278.833 659.5,277.5C 661.178,274.805 662.844,272.139 664.5,269.5 Z"/></g>
<g><path style="opacity:1" fill="#fefefe" d="M 645.5,270.5 C 652.046,272.006 654.213,276.006 652,282.5C 648.72,287.871 644.387,288.871 639,285.5C 638.333,282.833 638.333,280.167 639,277.5C 642.051,275.95 644.218,273.617 645.5,270.5 Z"/></g>
<g><path style="opacity:1" fill="#fefefe" d="M 710.5,272.5 C 713.649,272.211 716.649,272.711 719.5,274C 721.037,275.11 721.703,276.61 721.5,278.5C 719.738,278.643 718.071,278.309 716.5,277.5C 714.116,279.051 711.616,280.385 709,281.5C 707.558,280.788 706.725,279.621 706.5,278C 707.65,276.019 708.984,274.186 710.5,272.5 Z"/></g>
<g><path style="opacity:1" fill="#fefefe" d="M 601.5,280.5 C 605.744,280.748 609.578,282.081 613,284.5C 613.667,286.167 613.667,287.833 613,289.5C 607.045,293.126 601.379,297.126 596,301.5C 594.5,301.333 593.667,300.5 593.5,299C 596.573,294.696 595.906,291.029 591.5,288C 594.684,285.248 598.018,282.748 601.5,280.5 Z"/></g>
<g><path style="opacity:1" fill="#fcfcfc" d="M 513.5,283.5 C 517.929,284.666 518.429,286.666 515,289.5C 511.168,288.198 510.668,286.198 513.5,283.5 Z"/></g>
<g><path style="opacity:1" fill="#fcfcfc" d="M 656.5,284.5 C 658.564,284.762 659.897,285.929 660.5,288C 659.383,289.892 657.716,290.725 655.5,290.5C 655.325,288.379 655.659,286.379 656.5,284.5 Z"/></g>
<g><path style="opacity:1" fill="#fefefe" d="M 667.5,289.5 C 672.305,290.599 673.305,293.099 670.5,297C 668.231,297.758 666.064,297.591 664,296.5C 663.333,295.5 663.333,294.5 664,293.5C 665.376,292.295 666.542,290.962 667.5,289.5 Z"/></g>
<g><path style="opacity:1" fill="#fefefe" d="M 653.5,293.5 C 655.948,293.01 657.615,293.843 658.5,296C 655.456,299.933 654.789,304.266 656.5,309C 655.756,310.855 654.756,312.521 653.5,314C 653.95,315.285 654.617,316.452 655.5,317.5C 652.038,320.705 650.205,324.705 650,329.5C 647.426,332.259 645.26,331.926 643.5,328.5C 640.893,327.682 638.226,327.182 635.5,327C 634.978,326.439 634.645,325.772 634.5,325C 638.077,321.618 641.577,318.118 645,314.5C 645.833,312.833 646.667,311.167 647.5,309.5C 645.039,302.432 647.039,297.098 653.5,293.5 Z"/></g>
<g><path style="opacity:1" fill="#fefefe" d="M 549.5,299.5 C 552.167,300.167 554.833,300.833 557.5,301.5C 557.5,302.833 557.5,304.167 557.5,305.5C 552.83,306.163 550.164,304.163 549.5,299.5 Z"/></g>
<g><path style="opacity:1" fill="#fafafa" d="M 561.5,299.5 C 563.167,299.5 564.833,299.5 566.5,299.5C 566.8,302.244 565.633,303.911 563,304.5C 559.023,303.878 558.523,302.212 561.5,299.5 Z"/></g>
<g><path style="opacity:1" fill="#fefefe" d="M 621.5,304.5 C 623.467,304.261 625.301,304.594 627,305.5C 626.358,311.844 626.524,318.177 627.5,324.5C 622.472,324.487 620.472,322.154 621.5,317.5C 618.989,313.038 618.989,308.705 621.5,304.5 Z"/></g>
<g><path style="opacity:1" fill="#fefefe" d="M 525.5,305.5 C 526.873,305.343 528.207,305.51 529.5,306C 532.834,309.65 536.501,312.816 540.5,315.5C 540,316.5 539.5,317.5 539,318.5C 535.697,319.131 532.53,320.131 529.5,321.5C 527.833,321.167 526.833,320.167 526.5,318.5C 527.304,317.059 527.971,315.559 528.5,314C 527.381,311.711 526.047,309.545 524.5,307.5C 524.863,306.817 525.196,306.15 525.5,305.5 Z"/></g>
<g><path style="opacity:1" fill="#fefffe" d="M 612.5,313.5 C 613.5,313.5 614.5,313.5 615.5,313.5C 615.5,314.5 615.5,315.5 615.5,316.5C 614.5,316.5 613.5,316.5 612.5,316.5C 612.5,315.5 612.5,314.5 612.5,313.5 Z"/></g>
<g><path style="opacity:1" fill="#fefefe" d="M 590.5,314.5 C 593.439,314.918 595.772,316.418 597.5,319C 600.167,319.333 602.833,319.667 605.5,320C 608.274,321.605 608.94,323.772 607.5,326.5C 604.229,330.089 600.229,331.256 595.5,330C 594.329,326.139 592.496,322.639 590,319.5C 589.36,317.735 589.527,316.068 590.5,314.5 Z"/></g>
<g><path style="opacity:1" fill="#fefefe" d="M 522.5,330.5 C 527.883,329.384 530.883,331.551 531.5,337C 530.553,340.072 528.553,341.072 525.5,340C 523.259,338.261 521.592,336.094 520.5,333.5C 521.193,332.482 521.859,331.482 522.5,330.5 Z"/></g>
<g><path style="opacity:1" fill="#fefefe" d="M 614.5,333.5 C 616.199,333.34 617.866,333.506 619.5,334C 621.564,337.338 623.897,340.505 626.5,343.5C 623.731,345.062 621.064,346.895 618.5,349C 617.207,349.49 615.873,349.657 614.5,349.5C 613.329,344.151 613.329,338.818 614.5,333.5 Z"/></g>
<g><path style="opacity:1" fill="#fefefe" d="M 642.5,336.5 C 644.288,336.215 645.955,336.548 647.5,337.5C 649.276,341.139 651.61,341.472 654.5,338.5C 655.946,339.171 656.612,340.338 656.5,342C 656.007,344.819 654.84,347.319 653,349.5C 649.807,351.699 646.974,354.199 644.5,357C 645.833,360.333 645.833,363.667 644.5,367C 645.403,369.877 646.403,372.71 647.5,375.5C 646.726,379.146 646.059,382.812 645.5,386.5C 647.282,390.572 648.948,394.739 650.5,399C 650.42,401.554 649.086,403.054 646.5,403.5C 642.335,402.307 640.001,403.974 639.5,408.5C 639.57,409.772 639.903,410.938 640.5,412C 643.167,412 645.833,412 648.5,412C 649.126,412.75 649.626,413.584 650,414.5C 649.551,418.777 649.051,423.111 648.5,427.5C 648.318,431.801 649.318,435.801 651.5,439.5C 650.167,441.833 648.833,444.167 647.5,446.5C 647.993,449.485 649.16,452.152 651,454.5C 651.667,459.5 651.667,464.5 651,469.5C 649.596,471.394 648.43,473.394 647.5,475.5C 648.781,480.52 648.781,485.52 647.5,490.5C 646.726,491.711 645.893,491.711 645,490.5C 643,485.167 641,479.833 639,474.5C 638.838,478.643 637.671,482.477 635.5,486C 637.927,489.819 638.927,493.986 638.5,498.5C 640.857,498.337 643.19,498.503 645.5,499C 646.833,500.333 646.833,501.667 645.5,503C 642.898,503.977 640.398,505.144 638,506.5C 639.207,508.914 639.54,511.581 639,514.5C 637.167,518.167 635.333,521.833 633.5,525.5C 639.582,527.763 640.082,531.096 635,535.5C 634.855,539.523 634.021,543.356 632.5,547C 633.961,549.958 635.961,552.458 638.5,554.5C 638.113,555.72 637.28,556.387 636,556.5C 633.667,554.833 631.333,553.167 629,551.5C 626.586,552.957 624.086,554.291 621.5,555.5C 619.683,562.677 622.349,565.01 629.5,562.5C 629.147,564.635 629.98,565.968 632,566.5C 633.168,565.491 634.335,564.491 635.5,563.5C 636.72,563.887 637.387,564.72 637.5,566C 635.013,571.154 631.179,574.987 626,577.5C 625.333,578.5 625.333,579.5 626,580.5C 628.445,581.977 630.612,583.81 632.5,586C 635.444,586.97 638.444,587.804 641.5,588.5C 644.076,594.589 642.076,597.923 635.5,598.5C 631.632,598.4 628.965,596.567 627.5,593C 618.744,592.709 618.244,594.876 626,599.5C 626.896,602.025 626.396,604.192 624.5,606C 621.749,606.516 619.416,607.683 617.5,609.5C 619.761,611.455 621.761,613.622 623.5,616C 621.721,618.104 620.388,620.438 619.5,623C 621.038,626.021 621.538,629.188 621,632.5C 620.196,636.645 618.363,640.312 615.5,643.5C 616.213,645.776 616.713,648.109 617,650.5C 618.667,651.5 620.333,652.5 622,653.5C 623.042,658.634 620.876,661.301 615.5,661.5C 611.55,660.775 608.05,659.108 605,656.5C 604.333,654.833 604.333,653.167 605,651.5C 606.896,648.204 608.396,644.704 609.5,641C 607.05,634.956 609.05,632.123 615.5,632.5C 615.649,631.448 615.483,630.448 615,629.5C 612.815,628.072 610.815,626.405 609,624.5C 608.833,622.5 608.667,620.5 608.5,618.5C 610.757,605.622 611.924,592.622 612,579.5C 614.491,576.681 616.324,573.514 617.5,570C 613.986,558.123 613.653,546.123 616.5,534C 615.061,523.464 615.561,512.964 618,502.5C 619.182,500.656 620.349,498.823 621.5,497C 619.915,495.075 618.748,492.909 618,490.5C 617.61,486.486 617.11,482.486 616.5,478.5C 618.508,470.962 619.674,463.295 620,455.5C 621,453.833 622,452.167 623,450.5C 621.51,442.606 622.676,435.106 626.5,428C 625.939,421.593 624.939,415.26 623.5,409C 623.865,406.739 624.531,404.573 625.5,402.5C 625.192,401.692 624.692,401.025 624,400.5C 625.091,391.639 622.758,383.972 617,377.5C 615.131,371.959 614.465,366.293 615,360.5C 628.017,356.019 632.184,360.352 627.5,373.5C 628.096,376.515 629.096,379.349 630.5,382C 629.953,384.217 628.953,386.217 627.5,388C 630.214,392.709 632.547,392.375 634.5,387C 633.833,385.333 633.167,383.667 632.5,382C 634.706,374.936 636.539,367.769 638,360.5C 640.158,359.174 641.992,357.507 643.5,355.5C 642.373,349.599 640.373,343.933 637.5,338.5C 639.291,337.83 640.958,337.163 642.5,336.5 Z"/></g>
<g><path style="opacity:1" fill="#fefefe" d="M 510.5,342.5 C 511.496,342.414 512.329,342.748 513,343.5C 513.273,345.329 514.107,346.829 515.5,348C 519.863,348.29 524.196,348.79 528.5,349.5C 531.809,347.201 535.142,344.868 538.5,342.5C 540.776,343.213 543.109,343.713 545.5,344C 547.212,346.366 548.878,348.699 550.5,351C 549.932,356.83 548.932,362.497 547.5,368C 547.927,371.874 548.593,375.707 549.5,379.5C 547.775,384.899 546.442,390.399 545.5,396C 546.697,406.664 547.697,417.331 548.5,428C 545.941,437.923 547.274,447.423 552.5,456.5C 549.853,458.549 549.019,461.216 550,464.5C 550.561,465.022 551.228,465.355 552,465.5C 557.161,461.446 562.995,459.612 569.5,460C 571.954,460.943 572.954,462.776 572.5,465.5C 572.481,468.699 571.481,471.533 569.5,474C 569.93,475.434 570.764,476.601 572,477.5C 572.861,483.585 572.527,489.585 571,495.5C 567.234,497.906 564.067,497.073 561.5,493C 565.12,490.297 565.287,487.463 562,484.5C 561.377,479.067 563.044,474.4 567,470.5C 567.667,469.5 567.667,468.5 567,467.5C 565.274,466.424 563.441,466.257 561.5,467C 558.61,471.112 554.61,473.112 549.5,473C 548.196,473.804 547.529,474.971 547.5,476.5C 549.04,480.213 551.207,483.547 554,486.5C 554.667,492.167 554.667,497.833 554,503.5C 548.85,507.896 549.516,510.896 556,512.5C 556.339,514.834 556.172,517.168 555.5,519.5C 555.577,521.299 556.077,522.966 557,524.5C 559.533,525.872 562.2,526.872 565,527.5C 569.123,533.199 570.789,539.532 570,546.5C 566.684,552.795 563.184,558.962 559.5,565C 559.645,565.772 559.978,566.439 560.5,567C 563.276,567.066 565.442,568.232 567,570.5C 567.735,574.813 568.235,579.147 568.5,583.5C 566.105,582.637 563.771,582.637 561.5,583.5C 560.685,585.955 559.685,588.289 558.5,590.5C 559.709,594.545 562.209,597.545 566,599.5C 567.375,605.212 566.541,610.712 563.5,616C 562.004,616.507 560.837,616.007 560,614.5C 559.167,612 558.333,609.5 557.5,607C 558.692,604.945 558.692,602.945 557.5,601C 553.301,601.144 549.134,601.311 545,601.5C 543.494,606.746 543.161,612.079 544,617.5C 546.979,618.547 549.812,619.881 552.5,621.5C 553.84,622.688 554.507,624.188 554.5,626C 553.822,630.267 552.322,634.1 550,637.5C 546.956,636.219 545.79,633.885 546.5,630.5C 545.5,630.5 544.5,630.5 543.5,630.5C 543.219,635.565 543.552,640.565 544.5,645.5C 546.421,646.641 548.421,646.808 550.5,646C 552.727,642.779 554.727,642.779 556.5,646C 554.428,651.569 550.428,654.736 544.5,655.5C 543.289,656.274 543.289,657.107 544.5,658C 549.833,658.667 555.167,658.667 560.5,658C 562.65,655.296 564.816,655.129 567,657.5C 568.111,661.242 568.611,664.909 568.5,668.5C 571.298,669.969 574.298,670.802 577.5,671C 579.073,674.778 580.573,678.611 582,682.5C 583.333,683.833 584.667,683.833 586,682.5C 587.431,675.286 591.097,669.62 597,665.5C 604.496,669.167 605.163,673.834 599,679.5C 598.316,680.784 598.483,681.951 599.5,683C 601.899,683.711 604.232,683.544 606.5,682.5C 607.814,683.313 608.981,684.313 610,685.5C 610.497,683.19 610.663,680.857 610.5,678.5C 614.007,677.994 617.174,678.66 620,680.5C 620.629,685.328 619.962,689.995 618,694.5C 614.645,695.618 611.478,697.118 608.5,699C 605.451,703.716 601.451,707.382 596.5,710C 588.828,712.216 581.662,715.383 575,719.5C 573.596,719.491 572.43,718.991 571.5,718C 574.237,713.469 576.404,708.636 578,703.5C 581.781,699.228 584.948,699.562 587.5,704.5C 590.775,706.214 593.108,705.381 594.5,702C 596.167,701.667 597.833,701.333 599.5,701C 602.371,697.302 605.371,693.802 608.5,690.5C 608.291,689.914 607.957,689.414 607.5,689C 604.07,688.044 600.57,687.544 597,687.5C 590.563,688.958 584.063,690.291 577.5,691.5C 568.639,692.146 565.639,688.313 568.5,680C 568.589,677.277 567.923,674.777 566.5,672.5C 565.029,673.381 564.196,674.714 564,676.5C 562.602,682.045 562.769,687.379 564.5,692.5C 564.392,693.442 564.059,694.275 563.5,695C 558.443,693.174 553.109,691.84 547.5,691C 546.446,689.612 546.28,688.112 547,686.5C 550.158,683.92 553.492,681.587 557,679.5C 557.498,676.518 557.665,673.518 557.5,670.5C 555.473,670.662 553.473,670.495 551.5,670C 550.782,668.013 549.782,666.179 548.5,664.5C 548.383,669.827 548.05,675.16 547.5,680.5C 545.856,680.714 544.356,680.38 543,679.5C 541.914,673.75 540.414,668.083 538.5,662.5C 539.579,653.04 538.913,643.706 536.5,634.5C 539.275,628.391 539.108,622.391 536,616.5C 536.238,608.88 535.071,601.547 532.5,594.5C 533.656,591.532 534.99,588.699 536.5,586C 535.341,581.365 534.341,576.698 533.5,572C 533.243,566.745 535.577,564.412 540.5,565C 544.296,568.558 547.296,568.058 549.5,563.5C 548.27,560.709 546.77,558.042 545,555.5C 543.636,558.363 541.47,560.363 538.5,561.5C 537.522,561.023 536.689,560.357 536,559.5C 535.743,552.908 534.91,546.408 533.5,540C 533.565,537.409 534.065,534.909 535,532.5C 537.148,531.023 538.482,529.023 539,526.5C 538.314,513.999 538.481,501.499 539.5,489C 538.983,484.062 537.983,479.228 536.5,474.5C 537.043,472.032 537.376,469.532 537.5,467C 535.733,455.888 535.233,444.722 536,433.5C 538.34,429.445 539.007,425.111 538,420.5C 535.295,419.245 533.462,417.245 532.5,414.5C 533.385,409.621 534.885,404.954 537,400.5C 536.65,390.467 538.483,380.8 542.5,371.5C 541.78,366.863 541.28,362.197 541,357.5C 537.641,355.115 534.141,355.115 530.5,357.5C 526.445,355.52 522.278,355.187 518,356.5C 514.823,356.109 511.99,354.943 509.5,353C 507.667,352.833 505.833,352.667 504,352.5C 499.48,353.239 494.98,353.739 490.5,354C 489.167,352.667 489.167,351.333 490.5,350C 495.052,348.574 499.719,347.574 504.5,347C 507.106,346.208 509.106,344.708 510.5,342.5 Z"/></g>
<g><path style="opacity:1" fill="#fefefe" d="M 439.5,345.5 C 447.244,345.709 454.911,346.542 462.5,348C 465.426,349.507 467.426,351.841 468.5,355C 470.167,355.667 471.833,355.667 473.5,355C 477.425,351.328 480.758,351.661 483.5,356C 483.241,357.261 482.574,358.261 481.5,359C 476.718,359.119 472.051,359.785 467.5,361C 465.167,364 462.833,367 460.5,370C 454.666,368.307 449.666,369.64 445.5,374C 441.912,375.963 438.245,377.63 434.5,379C 435.26,380.441 435.926,381.941 436.5,383.5C 434.376,385.121 432.376,386.954 430.5,389C 428.393,389.854 427.059,389.188 426.5,387C 427.856,385.433 428.523,383.6 428.5,381.5C 425.438,380.946 422.438,380.446 419.5,380C 419.043,380.414 418.709,380.914 418.5,381.5C 421.262,384.619 421.762,387.952 420,391.5C 415.307,395.931 409.807,398.931 403.5,400.5C 401.483,399.826 399.817,398.659 398.5,397C 397.207,396.51 395.873,396.343 394.5,396.5C 395.2,402.471 392.534,405.804 386.5,406.5C 384.391,406.225 383.058,405.058 382.5,403C 383.918,399.999 384.751,396.832 385,393.5C 388.217,390.62 391.05,387.453 393.5,384C 391.634,381.784 390.8,379.284 391,376.5C 393.919,375.813 396.752,374.813 399.5,373.5C 401.69,371.476 404.023,369.643 406.5,368C 408.208,364.111 410.208,360.445 412.5,357C 421.368,352.558 430.368,348.725 439.5,345.5 Z"/></g>
<g><path style="opacity:1" fill="#000000" d="M 437.5,357.5 C 438.496,357.414 439.329,357.748 440,358.5C 440.26,360.618 441.26,362.284 443,363.5C 443.531,367.283 442.031,368.283 438.5,366.5C 436.973,364.807 435.64,362.973 434.5,361C 435.71,359.961 436.71,358.794 437.5,357.5 Z"/></g>
<g><path style="opacity:1" fill="#fefffe" d="M 494.5,363.5 C 500.469,363.625 500.969,365.292 496,368.5C 494.731,367.095 494.231,365.429 494.5,363.5 Z"/></g>
<g><path style="opacity:1" fill="#fefefe" d="M 459.5,371.5 C 465.131,371.42 467.131,373.92 465.5,379C 460.331,380.501 455.164,382.001 450,383.5C 446.655,383.141 445.822,381.474 447.5,378.5C 452.188,377.162 456.188,374.829 459.5,371.5 Z"/></g>
<g><path style="opacity:1" fill="#fefefe" d="M 480.5,372.5 C 484.661,372.758 488.661,372.758 492.5,372.5C 494.266,372.434 495.266,373.268 495.5,375C 492.709,379.082 491.876,383.582 493,388.5C 493.667,389.167 494.333,389.833 495,390.5C 495.167,393.333 495.333,396.167 495.5,399C 492.997,408.038 491.663,417.371 491.5,427C 491.606,434.555 492.272,442.055 493.5,449.5C 492.771,454.47 492.271,459.47 492,464.5C 488.023,467.12 486.19,470.787 486.5,475.5C 491.95,476.029 495.616,478.695 497.5,483.5C 496.751,489.911 495.584,496.245 494,502.5C 492.512,514.399 492.679,526.232 494.5,538C 493.614,540.808 493.447,543.641 494,546.5C 495.667,549.167 497.333,551.833 499,554.5C 499.167,556.333 499.333,558.167 499.5,560C 497.706,565.321 496.706,570.821 496.5,576.5C 496.657,582.577 497.323,588.577 498.5,594.5C 497.854,596.977 496.354,598.644 494,599.5C 491.205,598.815 488.372,598.315 485.5,598C 484.667,597.167 483.833,596.333 483,595.5C 482.308,592.064 481.308,588.73 480,585.5C 477.694,584.418 476.194,585.252 475.5,588C 477.789,591.427 478.123,595.094 476.5,599C 476.661,603.492 478.994,605.492 483.5,605C 484.743,606.154 485.743,607.488 486.5,609C 490.009,608.979 493.175,609.812 496,611.5C 496.667,614.167 496.667,616.833 496,619.5C 494.161,621.679 491.994,623.512 489.5,625C 490.608,627.112 492.108,628.946 494,630.5C 494.667,632.5 494.667,634.5 494,636.5C 490.286,647.442 487.286,658.442 485,669.5C 482.876,672.325 480.376,674.825 477.5,677C 474.173,677.513 472.507,676.013 472.5,672.5C 473.031,668.543 475.364,666.376 479.5,666C 482.234,663.354 482.567,660.687 480.5,658C 479.833,657.333 479.167,657.333 478.5,658C 477.218,660.954 475.052,662.787 472,663.5C 467.477,659.998 462.643,656.832 457.5,654C 454.741,653.023 452.741,653.856 451.5,656.5C 456.826,658.929 461.659,662.263 466,666.5C 466.345,668.201 465.678,669.534 464,670.5C 461.966,668.968 459.799,667.635 457.5,666.5C 456.5,666.833 455.833,667.5 455.5,668.5C 457.786,670.613 459.452,673.113 460.5,676C 467.213,677.721 472.546,681.388 476.5,687C 473.833,689 473.833,691 476.5,693C 477.996,693.507 479.163,693.007 480,691.5C 481.968,688.187 483.968,684.854 486,681.5C 487.724,678.27 489.724,677.936 492,680.5C 493.121,688.927 490.787,696.26 485,702.5C 484.667,705.833 484.333,709.167 484,712.5C 481.852,713.977 480.518,715.977 480,718.5C 476.576,720.267 474.41,719.267 473.5,715.5C 474.52,707.223 472.187,706.39 466.5,713C 464.236,713.236 462.069,713.736 460,714.5C 460.718,718.841 460.551,723.174 459.5,727.5C 463.091,725.301 467.091,723.968 471.5,723.5C 473.135,724.046 474.801,724.38 476.5,724.5C 476.67,725.822 476.337,726.989 475.5,728C 472.922,730.207 470.089,732.04 467,733.5C 466.316,734.784 466.483,735.951 467.5,737C 471.058,736.043 474.725,735.043 478.5,734C 480.113,731.772 480.78,729.272 480.5,726.5C 483.879,726.853 486.879,728.187 489.5,730.5C 491.968,729.197 494.301,727.697 496.5,726C 497.833,725.333 499.167,725.333 500.5,726C 500.783,729.137 501.116,732.304 501.5,735.5C 503.517,734.826 505.183,733.659 506.5,732C 514.233,733.261 517.733,730.095 517,722.5C 512.684,721.105 511.851,718.772 514.5,715.5C 528.514,708.316 532.847,711.983 527.5,726.5C 529.963,726.781 532.13,727.781 534,729.5C 536.647,725.931 539.813,722.931 543.5,720.5C 542.332,718.783 540.665,718.116 538.5,718.5C 539.201,714.181 538.034,710.514 535,707.5C 534.183,704.036 534.517,700.702 536,697.5C 537.356,696.62 538.856,696.286 540.5,696.5C 539.535,701.756 541.201,705.756 545.5,708.5C 546.482,711.096 547.149,713.762 547.5,716.5C 551.96,715.885 555.96,716.885 559.5,719.5C 564.359,715.259 567.692,716.259 569.5,722.5C 569.61,724.374 568.944,725.874 567.5,727C 563.959,727.221 560.793,728.388 558,730.5C 555.888,729.392 554.054,727.892 552.5,726C 550.833,725.333 549.167,725.333 547.5,726C 544.423,730.808 541.09,735.475 537.5,740C 531.147,741.505 524.814,743.172 518.5,745C 514.152,745.238 509.819,744.905 505.5,744C 500.107,742.05 494.607,740.55 489,739.5C 485.698,738.975 483.198,740.142 481.5,743C 477.5,743.333 473.5,743.667 469.5,744C 463.773,746.836 461.94,751.336 464,757.5C 461.629,760.206 458.963,762.539 456,764.5C 453.989,768.531 452.989,772.865 453,777.5C 450.002,781.916 445.835,784.082 440.5,784C 436.5,788.667 432.5,788.667 428.5,784C 420.637,784.949 414.637,788.949 410.5,796C 407.638,796.93 405.305,798.597 403.5,801C 397.695,801.397 393.362,804.064 390.5,809C 387.102,810.916 383.435,811.916 379.5,812C 376.305,813.695 373.972,816.195 372.5,819.5C 375.471,822.155 378.971,824.155 383,825.5C 387.348,820.329 392.515,815.996 398.5,812.5C 401.834,813.831 404.834,815.665 407.5,818C 408.5,818.667 409.5,818.667 410.5,818C 414.299,815.203 417.799,812.036 421,808.5C 422.827,803.347 425.327,798.514 428.5,794C 433.564,792.942 438.564,791.609 443.5,790C 446.876,786.644 450.876,784.31 455.5,783C 457.871,780.294 460.537,777.961 463.5,776C 467.086,774.892 470.753,774.392 474.5,774.5C 474.714,776.144 474.38,777.644 473.5,779C 466.768,780.032 461.768,783.532 458.5,789.5C 458.709,790.086 459.043,790.586 459.5,791C 456.05,795.727 451.384,798.393 445.5,799C 441.855,803.817 437.188,807.151 431.5,809C 430.333,810.167 429.167,811.333 428,812.5C 427.462,816.445 427.962,820.278 429.5,824C 429.385,825.895 428.718,827.562 427.5,829C 419.465,831.341 411.465,833.674 403.5,836C 394.825,836.748 386.325,838.248 378,840.5C 375.287,840.589 372.787,839.922 370.5,838.5C 366.487,841.007 362.153,842.84 357.5,844C 347.674,843.054 339.007,845.721 331.5,852C 325.833,859 319.5,865.333 312.5,871C 299.659,877.917 285.993,880.584 271.5,879C 264.668,886.836 256.168,892.003 246,894.5C 240.849,892.682 236.182,890.015 232,886.5C 230.184,882.707 228.184,879.04 226,875.5C 225.372,871.285 224.538,867.118 223.5,863C 223.734,855.257 227.734,852.257 235.5,854C 246.144,848.845 257.477,846.511 269.5,847C 284.214,840.615 298.214,832.949 311.5,824C 315.167,823.667 318.833,823.333 322.5,823C 326.424,819.79 330.59,816.956 335,814.5C 339.842,816.762 344.675,816.596 349.5,814C 354.532,808.633 359.865,803.633 365.5,799C 367.246,798.529 368.913,797.862 370.5,797C 379.465,788.855 388.799,781.189 398.5,774C 404.503,773.056 410.503,772.223 416.5,771.5C 419.866,766.642 424.533,763.808 430.5,763C 432.612,759.222 435.112,755.722 438,752.5C 439.757,747.963 441.09,743.296 442,738.5C 443.887,721.89 444.887,705.223 445,688.5C 447.167,685.5 449.333,682.5 451.5,679.5C 448.394,676.569 445.894,673.236 444,669.5C 443.449,664.455 443.782,659.455 445,654.5C 447.945,650.768 451.445,647.601 455.5,645C 458.167,644.667 460.833,644.333 463.5,644C 463.957,643.586 464.291,643.086 464.5,642.5C 462.102,640.37 460.768,637.703 460.5,634.5C 461.391,629.593 462.891,624.926 465,620.5C 466.037,614.606 465.371,608.939 463,603.5C 462.667,595.833 462.333,588.167 462,580.5C 459.653,576.809 458.153,572.809 457.5,568.5C 458.613,564.94 460.28,561.607 462.5,558.5C 460.518,550.625 459.184,542.625 458.5,534.5C 459.141,530.41 460.474,526.576 462.5,523C 460.571,510.789 461.571,498.789 465.5,487C 463.724,482.127 461.724,477.46 459.5,473C 461.767,466.38 463.1,459.547 463.5,452.5C 462.789,447.697 461.455,443.197 459.5,439C 458.975,435.698 460.142,433.198 463,431.5C 463.923,429.966 464.423,428.299 464.5,426.5C 462.67,414.223 461.836,401.89 462,389.5C 462.055,387.115 463.222,385.781 465.5,385.5C 467.722,386.055 469.722,387.055 471.5,388.5C 472.167,388.167 472.833,387.833 473.5,387.5C 471.969,386.387 470.969,384.887 470.5,383C 472.666,378.335 475.999,374.835 480.5,372.5 Z"/></g>
<g><path style="opacity:1" fill="#000000" d="M 406.5,378.5 C 408.527,378.338 410.527,378.505 412.5,379C 413.603,380.68 413.27,382.18 411.5,383.5C 409.382,384.946 407.049,385.613 404.5,385.5C 404.394,382.921 405.061,380.588 406.5,378.5 Z"/></g>
<g><path style="opacity:1" fill="#000000" d="M 481.5,382.5 C 486.096,382.428 488.429,384.762 488.5,389.5C 487.59,393.267 485.424,394.267 482,392.5C 480.801,389.115 480.634,385.782 481.5,382.5 Z"/></g>
<g><path style="opacity:1" fill="#000000" d="M 468.5,394.5 C 471.848,395.012 474.181,396.845 475.5,400C 479.784,401.663 484.117,401.996 488.5,401C 490.874,404.504 490.707,408.004 488,411.5C 483.591,416.525 478.091,418.358 471.5,417C 471.695,412.648 471.195,408.148 470,403.5C 468.818,401.656 467.651,399.823 466.5,398C 466.978,396.697 467.645,395.531 468.5,394.5 Z"/></g>
<g><path style="opacity:1" fill="#000000" d="M 631.5,396.5 C 634.548,396.494 635.048,397.494 633,399.5C 631.961,398.756 631.461,397.756 631.5,396.5 Z"/></g>
<g><path style="opacity:1" fill="#fefefe" d="M 565.5,406.5 C 568.368,406.085 570.535,407.085 572,409.5C 572.59,413.297 572.09,416.964 570.5,420.5C 572.133,424.767 574.133,428.767 576.5,432.5C 575.576,436.355 574.076,440.022 572,443.5C 571.667,446.833 571.333,450.167 571,453.5C 567.799,456.017 564.966,455.517 562.5,452C 563.059,451.275 563.392,450.442 563.5,449.5C 561.275,445.135 560.608,440.635 561.5,436C 559.496,428.28 559.329,420.447 561,412.5C 562.332,410.34 563.832,408.34 565.5,406.5 Z"/></g>
<g><path style="opacity:1" fill="#000000" d="M 474.5,425.5 C 484.304,424.13 485.804,426.797 479,433.5C 478.166,436.172 477.332,438.839 476.5,441.5C 472.997,443.191 470.997,442.024 470.5,438C 473.01,435.344 473.676,432.344 472.5,429C 472.978,427.697 473.645,426.531 474.5,425.5 Z"/></g>
<g><path style="opacity:1" fill="#000000" d="M 632.5,435.5 C 634.39,435.297 635.89,435.963 637,437.5C 637.837,439.838 638.67,442.172 639.5,444.5C 638.29,447.193 638.29,449.859 639.5,452.5C 638.206,454.88 637.206,457.38 636.5,460C 638.145,461.645 639.812,463.312 641.5,465C 640.975,465.692 640.308,466.192 639.5,466.5C 637.167,465.333 634.833,464.167 632.5,463C 629.918,460.108 630.084,457.275 633,454.5C 633.576,452.623 633.409,450.789 632.5,449C 633.167,447.333 633.833,445.667 634.5,444C 633.756,441.845 632.756,439.845 631.5,438C 631.743,437.098 632.077,436.265 632.5,435.5 Z"/></g>
<g><path style="opacity:1" fill="#000000" d="M 477.5,452.5 C 482.236,454.484 482.736,457.484 479,461.5C 477.608,458.722 477.108,455.722 477.5,452.5 Z"/></g>
<g><path style="opacity:1" fill="#000000" d="M 474.5,501.5 C 475.496,501.414 476.329,501.748 477,502.5C 477.725,504.949 478.725,507.283 480,509.5C 480.821,512.554 480.655,515.554 479.5,518.5C 477.927,514.355 476.093,510.355 474,506.5C 473.36,504.735 473.527,503.068 474.5,501.5 Z"/></g>
<g><path style="opacity:1" fill="#fefefe" d="M 565.5,502.5 C 568.585,502.418 570.252,503.918 570.5,507C 569.853,509.805 568.353,511.971 566,513.5C 562.86,510.004 562.694,506.338 565.5,502.5 Z"/></g>
<g><path style="opacity:1" fill="#000000" d="M 632.5,503.5 C 633.117,503.611 633.617,503.944 634,504.5C 634.667,507.167 634.667,509.833 634,512.5C 631.661,516.588 630.161,516.254 629.5,511.5C 629.726,508.483 630.726,505.816 632.5,503.5 Z"/></g>
<g><path style="opacity:1" fill="#fefffe" d="M 645.5,510.5 C 646.5,510.5 647.5,510.5 648.5,510.5C 648.5,511.833 648.5,513.167 648.5,514.5C 647.5,514.5 646.5,514.5 645.5,514.5C 645.5,513.167 645.5,511.833 645.5,510.5 Z"/></g>
<g><path style="opacity:1" fill="#000000" d="M 474.5,529.5 C 477.873,530.932 478.207,532.932 475.5,535.5C 474.534,533.604 474.201,531.604 474.5,529.5 Z"/></g>
<g><path style="opacity:1" fill="#000000" d="M 484.5,534.5 C 486.89,534.685 487.89,536.018 487.5,538.5C 487.247,542.193 486.08,545.526 484,548.5C 482.347,546.768 481.514,544.601 481.5,542C 481.667,540.167 481.833,538.333 482,536.5C 482.995,535.934 483.828,535.267 484.5,534.5 Z"/></g>
<g><path style="opacity:1" fill="#000000" d="M 557.5,537.5 C 558.75,537.577 559.583,538.244 560,539.5C 561.897,545.38 560.23,549.714 555,552.5C 553.266,551.534 552.432,550.034 552.5,548C 552.615,543.597 554.281,540.097 557.5,537.5 Z"/></g>
<g><path style="opacity:1" fill="#fefefe" d="M 645.5,538.5 C 646.822,538.33 647.989,538.663 649,539.5C 649.804,545.569 649.471,551.569 648,557.5C 643.104,560.435 641.937,559.435 644.5,554.5C 643.014,551.854 641.348,549.354 639.5,547C 641.705,544.298 643.705,541.464 645.5,538.5 Z"/></g>
<g><path style="opacity:1" fill="#000000" d="M 481.5,554.5 C 485.192,554.017 488.192,555.184 490.5,558C 488.642,559.258 487.308,560.925 486.5,563C 489.874,574.075 486.707,576.242 477,569.5C 476.749,563.995 478.249,558.995 481.5,554.5 Z"/></g>
<g><path style="opacity:1" fill="#fafafa" d="M 576.5,556.5 C 577.5,556.5 578.5,556.5 579.5,556.5C 579.426,560.541 578.093,561.208 575.5,558.5C 575.863,557.817 576.196,557.15 576.5,556.5 Z"/></g>
<g><path style="opacity:1" fill="#000000" d="M 553.5,575.5 C 555.722,575.559 556.722,576.725 556.5,579C 555.114,582.694 554.28,586.527 554,590.5C 552.695,593.306 550.528,594.14 547.5,593C 541.837,589.172 542.337,586.672 549,585.5C 549.905,581.847 551.405,578.514 553.5,575.5 Z"/></g>
<g><path style="opacity:1" fill="#fdfdfd" d="M 572.5,588.5 C 577.498,590.071 577.831,592.571 573.5,596C 569.333,597.167 567.833,595.667 569,591.5C 570.145,590.364 571.312,589.364 572.5,588.5 Z"/></g>
<g><path style="opacity:1" fill="#fefefe" d="M 631.5,607.5 C 634.97,606.875 637.804,607.875 640,610.5C 640.901,615.535 642.401,620.368 644.5,625C 644.183,627.328 643.016,629.161 641,630.5C 631.944,625.284 628.777,617.617 631.5,607.5 Z"/></g>
<g><path style="opacity:1" fill="#fefefe" d="M 565.5,621.5 C 570.218,622.319 570.552,623.986 566.5,626.5C 564.296,625.218 563.962,623.551 565.5,621.5 Z"/></g>
<g><path style="opacity:1" fill="#000000" d="M 474.5,626.5 C 480.817,630.604 482.317,635.937 479,642.5C 476.667,645.151 474.833,644.984 473.5,642C 475.668,637.923 475.668,633.757 473.5,629.5C 473.685,628.416 474.018,627.416 474.5,626.5 Z"/></g>
<g><path style="opacity:1" fill="#fefefe" d="M 638.5,636.5 C 642.636,636.401 644.969,638.401 645.5,642.5C 644.564,646.327 642.397,647.66 639,646.5C 637.801,643.115 637.634,639.782 638.5,636.5 Z"/></g>
<g><path style="opacity:1" fill="#fefefe" d="M 630.5,661.5 C 628.377,656.345 627.21,651.012 627,645.5C 628.494,644.253 629.994,644.253 631.5,645.5C 632.093,647.382 632.76,649.215 633.5,651C 635.766,652.152 638.1,652.652 640.5,652.5C 645.63,664.366 642.297,667.366 630.5,661.5 Z"/></g>
<g><path style="opacity:1" fill="#fefefe" d="M 565.5,646.5 C 568.956,647.536 569.29,649.203 566.5,651.5C 564.296,650.218 563.962,648.551 565.5,646.5 Z"/></g>
<g><path style="opacity:1" fill="#fefefe" d="M 630.5,661.5 C 631.117,663.229 632.117,664.729 633.5,666C 635.949,666.725 638.283,667.725 640.5,669C 641.641,671.308 643.308,673.141 645.5,674.5C 648.024,672.81 650.024,670.643 651.5,668C 652.833,667.333 654.167,667.333 655.5,668C 657.102,670.111 659.102,671.611 661.5,672.5C 666.838,668.829 672.505,665.662 678.5,663C 683.288,662.276 687.955,661.11 692.5,659.5C 699.686,665.587 701.186,672.92 697,681.5C 694.609,683.662 691.942,683.995 689,682.5C 681.789,682.316 676.289,685.149 672.5,691C 669.018,692.244 666.018,694.244 663.5,697C 662.207,697.49 660.873,697.657 659.5,697.5C 659.274,694.751 659.607,692.084 660.5,689.5C 658.62,686.909 656.62,684.409 654.5,682C 652.236,681.764 650.069,681.264 648,680.5C 646.129,681.997 645.129,683.997 645,686.5C 643.667,687.833 642.333,687.833 641,686.5C 640.674,681.801 638.674,678.134 635,675.5C 631.56,677.939 628.227,677.939 625,675.5C 623.355,671.3 622.689,666.967 623,662.5C 625.242,660.285 627.742,659.952 630.5,661.5 Z"/></g>
<g><path style="opacity:1" fill="#fefefe" d="M 585.5,660.5 C 590.068,660.083 591.568,662.083 590,666.5C 587.925,668.648 585.592,668.982 583,667.5C 581.916,664.341 582.75,662.008 585.5,660.5 Z"/></g>
<g><path style="opacity:1" fill="#fefefe" d="M 594.5,660.5 C 596.337,660.639 596.67,661.306 595.5,662.5C 594.702,662.043 594.369,661.376 594.5,660.5 Z"/></g>
<g><path style="opacity:1" fill="#000000" d="M 456.5,684.5 C 458.5,684.833 460.5,685.167 462.5,685.5C 462.26,688.579 462.593,691.579 463.5,694.5C 462.389,698.324 460.055,699.324 456.5,697.5C 455.497,694.828 454.497,692.162 453.5,689.5C 454.092,687.577 455.092,685.911 456.5,684.5 Z"/></g>
<g><path style="opacity:1" fill="#fefffe" d="M 540.5,684.5 C 542.337,684.639 542.67,685.306 541.5,686.5C 540.702,686.043 540.369,685.376 540.5,684.5 Z"/></g>
<g><path style="opacity:1" fill="#fefefe" d="M 623.5,692.5 C 624.873,692.343 626.207,692.51 627.5,693C 628.667,694.833 629.833,696.667 631,698.5C 631.245,702.853 631.245,707.187 631,711.5C 633.405,711.964 635.905,712.131 638.5,712C 640.388,714.19 642.555,716.023 645,717.5C 646.53,723.999 647.696,723.832 648.5,717C 647.927,713.824 647.76,710.657 648,707.5C 648.689,706.643 649.522,705.977 650.5,705.5C 652.316,706.815 653.983,708.315 655.5,710C 656.833,710.667 658.167,710.667 659.5,710C 661.127,707.246 662.627,704.412 664,701.5C 665.938,700.14 667.604,700.473 669,702.5C 670.47,705.743 671.636,709.076 672.5,712.5C 670.086,717.214 667.752,722.047 665.5,727C 660.338,728.834 655.672,731.501 651.5,735C 645.164,738.252 638.497,740.585 631.5,742C 629.208,743.29 627.208,744.957 625.5,747C 623.655,748.128 621.655,748.628 619.5,748.5C 617.547,742.967 615.214,737.633 612.5,732.5C 615.605,732.782 618.438,733.782 621,735.5C 624.776,733.398 628.443,733.398 632,735.5C 634.723,734.792 635.723,733.125 635,730.5C 629.167,728.834 628,725.501 631.5,720.5C 628.423,716.538 625.256,716.538 622,720.5C 621.424,722.377 621.591,724.211 622.5,726C 621.792,728.723 620.125,729.723 617.5,729C 615.898,726.738 613.731,725.238 611,724.5C 607.945,725.611 605.112,727.111 602.5,729C 590.892,726.598 585.392,731.431 586,743.5C 583.833,745.667 581.667,747.833 579.5,750C 578.365,750.749 577.365,750.583 576.5,749.5C 575.587,741.084 572.587,740.251 567.5,747C 563.023,747.165 561.523,744.998 563,740.5C 566.665,737.564 570.832,735.73 575.5,735C 578.238,732.796 578.905,730.129 577.5,727C 577.862,725.775 578.362,724.609 579,723.5C 582.73,721.477 586.563,719.644 590.5,718C 592.213,716.622 593.547,714.955 594.5,713C 597.167,712.333 599.833,712.333 602.5,713C 607.433,713.51 612.099,714.51 616.5,716C 618.468,712.04 621.135,708.707 624.5,706C 622.2,701.67 621.867,697.17 623.5,692.5 Z"/></g>
<g><path style="opacity:1" fill="#fefefe" d="M 645.5,695.5 C 649.633,695.469 651.8,697.469 652,701.5C 648.302,703.169 645.802,702.003 644.5,698C 644.743,697.098 645.077,696.265 645.5,695.5 Z"/></g>
<g><path style="opacity:1" fill="#fefffe" d="M 562.5,706.5 C 564.934,707.099 566.601,708.599 567.5,711C 564.711,715.928 562.711,715.595 561.5,710C 561.648,708.744 561.982,707.577 562.5,706.5 Z"/></g>
<g><path style="opacity:1" fill="#000000" d="M 659.5,717.5 C 661.048,717.821 661.715,718.821 661.5,720.5C 658.752,720.598 658.086,719.598 659.5,717.5 Z"/></g>
<g><path style="opacity:1" fill="#fefffe" d="M 594.5,736.5 C 595.5,736.5 596.5,736.5 597.5,736.5C 596.754,740.31 595.754,740.31 594.5,736.5 Z"/></g>
<g><path style="opacity:1" fill="#fefefe" d="M 488.5,744.5 C 491.233,744.196 492.899,745.363 493.5,748C 491.76,753.477 489.427,753.81 486.5,749C 487.582,747.67 488.249,746.17 488.5,744.5 Z"/></g>
<g><path style="opacity:1" fill="#fefefe" d="M 604.5,748.5 C 606.792,748.244 608.959,748.577 611,749.5C 611.667,750.5 611.667,751.5 611,752.5C 605.294,754.425 605.127,756.759 610.5,759.5C 612.937,757.773 615.604,756.94 618.5,757C 620.088,760.467 621.755,763.967 623.5,767.5C 621.816,773.057 619.65,778.39 617,783.5C 615.938,789.021 615.772,794.521 616.5,800C 615.149,805.204 613.649,810.371 612,815.5C 611.746,824.187 611.246,832.853 610.5,841.5C 611.039,844.859 611.705,848.193 612.5,851.5C 611.34,856.472 610.34,861.472 609.5,866.5C 609.957,882.176 610.123,897.843 610,913.5C 607.049,916.572 604.216,919.739 601.5,923C 595.342,924.087 591.009,921.754 588.5,916C 584.396,916.263 580.396,916.93 576.5,918C 575.859,915.422 575.525,912.755 575.5,910C 576.494,900.348 578.327,890.848 581,881.5C 583.333,879.167 585.667,876.833 588,874.5C 589.727,867.802 591.561,861.135 593.5,854.5C 592.711,848.885 592.211,843.218 592,837.5C 591.333,836.167 590.667,834.833 590,833.5C 589.569,825.05 588.402,816.716 586.5,808.5C 587.67,804.163 588.836,799.83 590,795.5C 589.646,788.649 589.812,781.816 590.5,775C 588.058,771.206 585.558,767.373 583,763.5C 581.919,760.032 582.585,757.032 585,754.5C 586.09,757.01 587.257,759.51 588.5,762C 591.879,764.278 594.712,763.778 597,760.5C 597.834,757.828 598.668,755.161 599.5,752.5C 601.419,751.388 603.086,750.054 604.5,748.5 Z"/></g>
<g><path style="opacity:1" fill="#fefefe" d="M 549.5,749.5 C 551.924,749.192 554.257,749.526 556.5,750.5C 557.63,754.631 560.297,756.298 564.5,755.5C 564.66,757.199 564.494,758.866 564,760.5C 561.128,763.037 558.628,765.87 556.5,769C 552.357,769.162 548.523,770.329 545,772.5C 539.91,778.384 533.41,781.218 525.5,781C 523.167,782.667 520.833,784.333 518.5,786C 517.167,786.667 515.833,786.667 514.5,786C 511.966,779.634 507.633,777.968 501.5,781C 498.87,784.632 495.87,787.965 492.5,791C 488.961,792.504 485.295,792.837 481.5,792C 478.936,790.938 477.269,789.104 476.5,786.5C 476.529,784.971 477.196,783.804 478.5,783C 482.74,782.744 484.74,780.578 484.5,776.5C 481.873,776.707 480.207,775.54 479.5,773C 480.408,770.686 481.908,768.852 484,767.5C 484.667,766.167 484.667,764.833 484,763.5C 480.797,764.249 477.463,764.249 474,763.5C 473.226,758.234 475.226,754.234 480,751.5C 486.371,756.61 492.871,761.61 499.5,766.5C 499.081,767.672 498.415,768.672 497.5,769.5C 494.668,770.58 491.835,771.58 489,772.5C 486.508,776.361 487.508,778.694 492,779.5C 496.378,776.392 501.211,773.892 506.5,772C 507.975,769.691 509.642,767.524 511.5,765.5C 522.174,763.048 524.507,766.215 518.5,775C 518.63,776.059 519.13,776.892 520,777.5C 521.955,776.547 523.622,775.213 525,773.5C 524.934,770.422 525.101,767.422 525.5,764.5C 526.167,764.167 526.833,763.833 527.5,763.5C 531.253,764.51 534.587,766.01 537.5,768C 539.992,763.752 541.992,759.252 543.5,754.5C 544.96,752.028 546.96,750.361 549.5,749.5 Z"/></g>
<g><path style="opacity:1" fill="#fefefe" d="M 569.5,754.5 C 572.569,754.963 573.069,756.296 571,758.5C 568.988,757.434 568.488,756.1 569.5,754.5 Z"/></g>
<g><path style="opacity:1" fill="#000000" d="M 545.5,758.5 C 546.5,758.5 547.5,758.5 548.5,758.5C 548.5,759.5 548.5,760.5 548.5,761.5C 545.433,761.879 544.433,760.879 545.5,758.5 Z"/></g>
<g><path style="opacity:1" fill="#fdfdfd" d="M 464.5,766.5 C 469.733,767.158 470.399,768.991 466.5,772C 462.508,773.177 460.842,771.677 461.5,767.5C 462.791,767.737 463.791,767.404 464.5,766.5 Z"/></g>
<g><path style="opacity:1" fill="#fefefe" d="M 531.5,783.5 C 532.873,783.343 534.207,783.51 535.5,784C 537.866,786.275 540.366,788.441 543,790.5C 543.167,791.667 543.333,792.833 543.5,794C 541.341,803.591 539.674,813.591 538.5,824C 539.871,828.555 540.538,833.222 540.5,838C 539.783,854.161 539.616,870.327 540,886.5C 539.75,889.754 538.75,892.754 537,895.5C 536.275,896.059 535.442,896.392 534.5,896.5C 531.263,895.263 528.263,893.597 525.5,891.5C 523.963,887.463 521.796,883.796 519,880.5C 519.24,874.514 519.24,868.514 519,862.5C 516.887,858.439 515.72,854.106 515.5,849.5C 516.443,844.184 516.61,838.851 516,833.5C 513.193,830.056 511.027,826.223 509.5,822C 509.725,820.379 510.558,819.212 512,818.5C 515.73,820.224 518.897,822.724 521.5,826C 524.187,827.195 526.854,827.362 529.5,826.5C 530.833,825.167 530.833,823.833 529.5,822.5C 526.961,821.885 524.461,821.218 522,820.5C 521.362,819.391 520.862,818.225 520.5,817C 521.409,815.211 521.576,813.377 521,811.5C 516.859,807.351 515.526,802.351 517,796.5C 518.388,795.446 519.888,795.28 521.5,796C 525.683,799.174 528.683,803.174 530.5,808C 532.112,808.72 533.612,808.554 535,807.5C 535.484,805.087 535.15,802.754 534,800.5C 530.63,795.965 526.797,791.965 522.5,788.5C 525.593,786.979 528.593,785.313 531.5,783.5 Z"/></g>
<g><path style="opacity:1" fill="#fefefe" d="M 463.5,786.5 C 466.85,786.335 470.183,786.502 473.5,787C 476.044,789.447 476.044,791.947 473.5,794.5C 474.253,796.753 475.586,798.587 477.5,800C 474.743,804.179 471.743,808.179 468.5,812C 465.692,812.598 463.192,813.765 461,815.5C 456.567,822.504 454.9,830.171 456,838.5C 457.513,842.681 459.846,846.348 463,849.5C 465.733,869.761 466.066,890.095 464,910.5C 463.592,912.41 462.425,913.41 460.5,913.5C 454.98,912.228 449.646,910.395 444.5,908C 436.006,904.561 434.006,898.728 438.5,890.5C 437.133,883.231 436.3,875.898 436,868.5C 434.223,865.28 432.723,861.947 431.5,858.5C 432.806,851.628 434.639,844.962 437,838.5C 437.169,832.141 437.669,825.807 438.5,819.5C 441.187,816.907 444.354,815.24 448,814.5C 447.312,811.316 447.479,808.149 448.5,805C 449.609,804.362 450.775,803.862 452,803.5C 456.792,804.586 461.625,804.753 466.5,804C 468.325,802.534 468.825,800.701 468,798.5C 465.107,795.044 463.607,791.044 463.5,786.5 Z"/></g>
<g><path style="opacity:1" fill="#fefefe" d="M 504.5,790.5 C 509.984,790.438 511.817,793.105 510,798.5C 509.692,799.308 509.192,799.975 508.5,800.5C 503.825,798.402 502.492,795.069 504.5,790.5 Z"/></g>
<g><path style="opacity:1" fill="#fafafa" d="M 510.5,804.5 C 512.99,805.108 514.324,806.775 514.5,809.5C 512.356,813.428 510.689,813.095 509.5,808.5C 509.846,807.151 510.179,805.817 510.5,804.5 Z"/></g>
<g><path style="opacity:1" fill="#000000" d="M 408.5,822.5 C 412.311,823.612 412.478,825.279 409,827.5C 405.927,826.252 405.76,824.585 408.5,822.5 Z"/></g>
<g><path style="opacity:1" fill="#000000" d="M 368.5,832.5 C 369.586,832.62 370.253,833.287 370.5,834.5C 369.965,836.916 368.965,837.083 367.5,835C 368.252,834.329 368.586,833.496 368.5,832.5 Z"/></g>
<g><path style="opacity:1" fill="#000000" d="M 303.5,834.5 C 305.527,834.338 307.527,834.505 309.5,835C 309.957,835.414 310.291,835.914 310.5,836.5C 309.345,837.95 307.845,838.95 306,839.5C 303.541,844.376 301.375,849.376 299.5,854.5C 298.311,855.429 296.978,855.762 295.5,855.5C 295.754,851.061 296.588,846.728 298,842.5C 301.984,841.272 303.817,838.605 303.5,834.5 Z"/></g>
<g><path style="opacity:1" fill="#000000" d="M 283.5,845.5 C 284.5,845.5 285.5,845.5 286.5,845.5C 285.754,849.31 284.754,849.31 283.5,845.5 Z"/></g>
<g><path style="opacity:1" fill="#000000" d="M 275.5,853.5 C 276.458,853.953 277.292,854.619 278,855.5C 278.735,857.871 279.568,860.205 280.5,862.5C 280.113,863.72 279.28,864.387 278,864.5C 275.953,863.391 273.787,862.724 271.5,862.5C 271.054,858.64 272.387,855.64 275.5,853.5 Z"/></g>
</svg>
